<svg width="1440" height="145" viewBox="0 0 1440 145" fill="none" xmlns="http://www.w3.org/2000/svg">
<rect width="1440" height="145" fill="#FF7143" fill-opacity="0.27"/>
<g clip-path="url(#clip0_1_80)">
<rect x="1048.61" y="38" width="212.389" height="60" rx="10" fill="#FF7143"/>
<path d="M1115.11 74.204C1113.99 74.204 1113.01 73.949 1112.17 73.439C1111.34 72.929 1110.68 72.2207 1110.22 71.314C1109.75 70.396 1109.52 69.3307 1109.52 68.118C1109.52 66.894 1109.76 65.8173 1110.24 64.888C1110.72 63.9473 1111.41 63.2163 1112.29 62.695C1113.19 62.1623 1114.25 61.896 1115.47 61.896C1116.87 61.896 1118.02 62.2303 1118.94 62.899C1119.86 63.5677 1120.45 64.4913 1120.72 65.67H1118.29C1118.11 65.1147 1117.78 64.684 1117.31 64.378C1116.83 64.0607 1116.22 63.902 1115.47 63.902C1114.28 63.902 1113.36 64.2817 1112.72 65.041C1112.07 65.789 1111.75 66.8203 1111.75 68.135C1111.75 69.4497 1112.07 70.4697 1112.7 71.195C1113.35 71.909 1114.22 72.266 1115.32 72.266C1116.4 72.266 1117.21 71.977 1117.75 71.399C1118.31 70.8097 1118.64 70.039 1118.75 69.087H1115.74V67.455H1120.95V74H1118.94L1118.77 72.436C1118.38 73.0027 1117.9 73.439 1117.32 73.745C1116.75 74.051 1116.01 74.204 1115.11 74.204ZM1126.58 74.204C1125.73 74.204 1124.97 74.0227 1124.31 73.66C1123.66 73.2973 1123.14 72.7873 1122.77 72.13C1122.39 71.4727 1122.21 70.7133 1122.21 69.852C1122.21 68.9793 1122.39 68.203 1122.75 67.523C1123.12 66.843 1123.63 66.316 1124.28 65.942C1124.94 65.5567 1125.71 65.364 1126.59 65.364C1127.42 65.364 1128.15 65.5453 1128.79 65.908C1129.42 66.2707 1129.91 66.7693 1130.26 67.404C1130.63 68.0273 1130.81 68.7243 1130.81 69.495C1130.81 69.6197 1130.8 69.75 1130.79 69.886C1130.79 70.022 1130.79 70.1637 1130.77 70.311H1124.37C1124.41 70.9683 1124.64 71.484 1125.05 71.858C1125.47 72.232 1125.97 72.419 1126.56 72.419C1127 72.419 1127.37 72.3227 1127.66 72.13C1127.97 71.926 1128.2 71.6653 1128.34 71.348H1130.55C1130.4 71.8807 1130.13 72.368 1129.75 72.81C1129.39 73.2407 1128.94 73.5807 1128.39 73.83C1127.86 74.0793 1127.26 74.204 1126.58 74.204ZM1126.59 67.132C1126.06 67.132 1125.59 67.285 1125.18 67.591C1124.77 67.8857 1124.51 68.339 1124.4 68.951H1128.6C1128.56 68.3957 1128.36 67.9537 1127.99 67.625C1127.61 67.2963 1127.15 67.132 1126.59 67.132ZM1135.71 74C1134.83 74 1134.12 73.7847 1133.59 73.354C1133.06 72.9233 1132.79 72.1583 1132.79 71.059V67.387H1131.35V65.568H1132.79L1133.05 63.307H1134.97V65.568H1137.24V67.387H1134.97V71.076C1134.97 71.484 1135.05 71.7673 1135.22 71.926C1135.4 72.0733 1135.71 72.147 1136.14 72.147H1137.19V74H1135.71ZM1146.22 74.204C1145.34 74.204 1144.57 74.0567 1143.9 73.762C1143.23 73.456 1142.71 73.0253 1142.32 72.47C1141.94 71.9033 1141.74 71.2177 1141.73 70.413H1144.02C1144.04 70.9683 1144.24 71.4387 1144.62 71.824C1145 72.198 1145.53 72.385 1146.2 72.385C1146.78 72.385 1147.24 72.249 1147.58 71.977C1147.92 71.6937 1148.09 71.3197 1148.09 70.855C1148.09 70.3677 1147.93 69.988 1147.63 69.716C1147.33 69.444 1146.93 69.223 1146.44 69.053C1145.94 68.883 1145.4 68.7017 1144.84 68.509C1143.92 68.1917 1143.22 67.7837 1142.73 67.285C1142.25 66.7863 1142.02 66.1233 1142.02 65.296C1142 64.5933 1142.17 63.9927 1142.51 63.494C1142.86 62.984 1143.34 62.593 1143.94 62.321C1144.54 62.0377 1145.23 61.896 1146.01 61.896C1146.8 61.896 1147.5 62.0377 1148.1 62.321C1148.71 62.6043 1149.19 63.001 1149.53 63.511C1149.88 64.021 1150.07 64.6273 1150.09 65.33H1147.76C1147.75 64.9107 1147.59 64.5423 1147.27 64.225C1146.96 63.8963 1146.53 63.732 1145.98 63.732C1145.5 63.7207 1145.1 63.8397 1144.77 64.089C1144.45 64.327 1144.29 64.6783 1144.29 65.143C1144.29 65.5397 1144.42 65.857 1144.67 66.095C1144.92 66.3217 1145.26 66.5143 1145.69 66.673C1146.12 66.8317 1146.61 67.0017 1147.17 67.183C1147.76 67.387 1148.29 67.625 1148.78 67.897C1149.27 68.169 1149.66 68.5317 1149.96 68.985C1150.25 69.427 1150.4 69.9993 1150.4 70.702C1150.4 71.3253 1150.24 71.9033 1149.92 72.436C1149.6 72.9687 1149.13 73.3993 1148.51 73.728C1147.89 74.0453 1147.12 74.204 1146.22 74.204ZM1155.47 74C1154.59 74 1153.88 73.7847 1153.35 73.354C1152.81 72.9233 1152.55 72.1583 1152.55 71.059V67.387H1151.1V65.568H1152.55L1152.8 63.307H1154.72V65.568H1157V67.387H1154.72V71.076C1154.72 71.484 1154.81 71.7673 1154.98 71.926C1155.16 72.0733 1155.46 72.147 1155.9 72.147H1156.95V74H1155.47ZM1161.24 74.204C1160.52 74.204 1159.92 74.0907 1159.46 73.864C1158.99 73.626 1158.65 73.3143 1158.42 72.929C1158.2 72.5437 1158.08 72.1187 1158.08 71.654C1158.08 70.872 1158.39 70.2373 1159 69.75C1159.61 69.2627 1160.53 69.019 1161.75 69.019H1163.9V68.815C1163.9 68.237 1163.73 67.812 1163.4 67.54C1163.07 67.268 1162.67 67.132 1162.18 67.132C1161.74 67.132 1161.35 67.2397 1161.02 67.455C1160.69 67.659 1160.49 67.965 1160.41 68.373H1158.29C1158.34 67.761 1158.55 67.2283 1158.9 66.775C1159.26 66.3217 1159.73 65.976 1160.29 65.738C1160.86 65.4887 1161.49 65.364 1162.2 65.364C1163.4 65.364 1164.34 65.6643 1165.03 66.265C1165.73 66.8657 1166.07 67.7157 1166.07 68.815V74H1164.22L1164.01 72.64C1163.77 73.0933 1163.41 73.4673 1162.96 73.762C1162.52 74.0567 1161.95 74.204 1161.24 74.204ZM1161.74 72.504C1162.36 72.504 1162.84 72.3 1163.18 71.892C1163.53 71.484 1163.75 70.9797 1163.84 70.379H1161.99C1161.41 70.379 1161 70.4867 1160.75 70.702C1160.5 70.906 1160.38 71.161 1160.38 71.467C1160.38 71.7957 1160.5 72.0507 1160.75 72.232C1161 72.4133 1161.33 72.504 1161.74 72.504ZM1167.62 74V65.568H1169.56L1169.76 67.149C1170.07 66.605 1170.48 66.1743 1171 65.857C1171.53 65.5283 1172.16 65.364 1172.87 65.364V67.659H1172.26C1171.78 67.659 1171.36 67.7327 1170.98 67.88C1170.61 68.0273 1170.31 68.2823 1170.1 68.645C1169.9 69.0077 1169.79 69.512 1169.79 70.158V74H1167.62ZM1177.58 74C1176.7 74 1175.99 73.7847 1175.46 73.354C1174.93 72.9233 1174.66 72.1583 1174.66 71.059V67.387H1173.21V65.568H1174.66L1174.91 63.307H1176.83V65.568H1179.11V67.387H1176.83V71.076C1176.83 71.484 1176.92 71.7673 1177.09 71.926C1177.27 72.0733 1177.58 72.147 1178.01 72.147H1179.06V74H1177.58ZM1184.33 74.204C1183.48 74.204 1182.73 74.0227 1182.07 73.66C1181.41 73.2973 1180.9 72.7873 1180.52 72.13C1180.15 71.4727 1179.96 70.7133 1179.96 69.852C1179.96 68.9793 1180.14 68.203 1180.51 67.523C1180.88 66.843 1181.39 66.316 1182.04 65.942C1182.69 65.5567 1183.46 65.364 1184.35 65.364C1185.18 65.364 1185.91 65.5453 1186.54 65.908C1187.18 66.2707 1187.67 66.7693 1188.02 67.404C1188.38 68.0273 1188.56 68.7243 1188.56 69.495C1188.56 69.6197 1188.56 69.75 1188.55 69.886C1188.55 70.022 1188.54 70.1637 1188.53 70.311H1182.12C1182.17 70.9683 1182.39 71.484 1182.8 71.858C1183.22 72.232 1183.72 72.419 1184.31 72.419C1184.76 72.419 1185.12 72.3227 1185.42 72.13C1185.72 71.926 1185.95 71.6653 1186.1 71.348H1188.31C1188.15 71.8807 1187.88 72.368 1187.51 72.81C1187.15 73.2407 1186.69 73.5807 1186.15 73.83C1185.62 74.0793 1185.01 74.204 1184.33 74.204ZM1184.35 67.132C1183.82 67.132 1183.34 67.285 1182.94 67.591C1182.53 67.8857 1182.27 68.339 1182.15 68.951H1186.35C1186.32 68.3957 1186.12 67.9537 1185.74 67.625C1185.37 67.2963 1184.9 67.132 1184.35 67.132ZM1193.74 74.204C1192.95 74.204 1192.24 74.0113 1191.61 73.626C1190.99 73.2407 1190.5 72.7137 1190.13 72.045C1189.77 71.3763 1189.59 70.617 1189.59 69.767C1189.59 68.917 1189.77 68.1633 1190.13 67.506C1190.5 66.8373 1190.99 66.316 1191.61 65.942C1192.24 65.5567 1192.95 65.364 1193.74 65.364C1194.37 65.364 1194.93 65.483 1195.4 65.721C1195.88 65.959 1196.27 66.2933 1196.56 66.724V61.76H1198.74V74H1196.8L1196.56 72.793C1196.29 73.167 1195.93 73.4957 1195.47 73.779C1195.03 74.0623 1194.45 74.204 1193.74 74.204ZM1194.2 72.3C1194.9 72.3 1195.47 72.0677 1195.91 71.603C1196.37 71.127 1196.59 70.5207 1196.59 69.784C1196.59 69.0473 1196.37 68.4467 1195.91 67.982C1195.47 67.506 1194.9 67.268 1194.2 67.268C1193.51 67.268 1192.93 67.5003 1192.48 67.965C1192.03 68.4297 1191.8 69.0303 1191.8 69.767C1191.8 70.5037 1192.03 71.11 1192.48 71.586C1192.93 72.062 1193.51 72.3 1194.2 72.3Z" fill="white"/>
</g>
<path d="M559.424 73V62.5H561.344V66.865H566.054V62.5H567.974V73H566.054V68.425H561.344V73H559.424ZM573.07 73.18C572.35 73.18 571.7 73.015 571.12 72.685C570.55 72.355 570.095 71.9 569.755 71.32C569.425 70.73 569.26 70.05 569.26 69.28C569.26 68.51 569.43 67.835 569.77 67.255C570.11 66.665 570.565 66.205 571.135 65.875C571.715 65.545 572.365 65.38 573.085 65.38C573.795 65.38 574.435 65.545 575.005 65.875C575.585 66.205 576.04 66.665 576.37 67.255C576.71 67.835 576.88 68.51 576.88 69.28C576.88 70.05 576.71 70.73 576.37 71.32C576.04 71.9 575.585 72.355 575.005 72.685C574.425 73.015 573.78 73.18 573.07 73.18ZM573.07 71.515C573.57 71.515 574.005 71.33 574.375 70.96C574.745 70.58 574.93 70.02 574.93 69.28C574.93 68.54 574.745 67.985 574.375 67.615C574.005 67.235 573.575 67.045 573.085 67.045C572.575 67.045 572.135 67.235 571.765 67.615C571.405 67.985 571.225 68.54 571.225 69.28C571.225 70.02 571.405 70.58 571.765 70.96C572.135 71.33 572.57 71.515 573.07 71.515ZM578.128 73V65.56H579.823L579.988 66.565C580.228 66.205 580.543 65.92 580.933 65.71C581.333 65.49 581.793 65.38 582.313 65.38C583.463 65.38 584.278 65.825 584.758 66.715C585.028 66.305 585.388 65.98 585.838 65.74C586.298 65.5 586.798 65.38 587.338 65.38C588.308 65.38 589.053 65.67 589.573 66.25C590.093 66.83 590.353 67.68 590.353 68.8V73H588.433V68.98C588.433 68.34 588.308 67.85 588.058 67.51C587.818 67.17 587.443 67 586.933 67C586.413 67 585.993 67.19 585.673 67.57C585.363 67.95 585.208 68.48 585.208 69.16V73H583.288V68.98C583.288 68.34 583.163 67.85 582.913 67.51C582.663 67.17 582.278 67 581.758 67C581.248 67 580.833 67.19 580.513 67.57C580.203 67.95 580.048 68.48 580.048 69.16V73H578.128ZM595.322 73.18C594.572 73.18 593.907 73.02 593.327 72.7C592.747 72.38 592.292 71.93 591.962 71.35C591.632 70.77 591.467 70.1 591.467 69.34C591.467 68.57 591.627 67.885 591.947 67.285C592.277 66.685 592.727 66.22 593.297 65.89C593.877 65.55 594.557 65.38 595.337 65.38C596.067 65.38 596.712 65.54 597.272 65.86C597.832 66.18 598.267 66.62 598.577 67.18C598.897 67.73 599.057 68.345 599.057 69.025C599.057 69.135 599.052 69.25 599.042 69.37C599.042 69.49 599.037 69.615 599.027 69.745H593.372C593.412 70.325 593.612 70.78 593.972 71.11C594.342 71.44 594.787 71.605 595.307 71.605C595.697 71.605 596.022 71.52 596.282 71.35C596.552 71.17 596.752 70.94 596.882 70.66H598.832C598.692 71.13 598.457 71.56 598.127 71.95C597.807 72.33 597.407 72.63 596.927 72.85C596.457 73.07 595.922 73.18 595.322 73.18ZM595.337 66.94C594.867 66.94 594.452 67.075 594.092 67.345C593.732 67.605 593.502 68.005 593.402 68.545H597.107C597.077 68.055 596.897 67.665 596.567 67.375C596.237 67.085 595.827 66.94 595.337 66.94Z" fill="#19191B"/>
<path d="M651.023 73V62.5H657.803V64.045H652.943V66.985H656.873V68.5H652.943V73H651.023ZM661.99 73.18C661.24 73.18 660.575 73.02 659.995 72.7C659.415 72.38 658.96 71.93 658.63 71.35C658.3 70.77 658.135 70.1 658.135 69.34C658.135 68.57 658.295 67.885 658.615 67.285C658.945 66.685 659.395 66.22 659.965 65.89C660.545 65.55 661.225 65.38 662.005 65.38C662.735 65.38 663.38 65.54 663.94 65.86C664.5 66.18 664.935 66.62 665.245 67.18C665.565 67.73 665.725 68.345 665.725 69.025C665.725 69.135 665.72 69.25 665.71 69.37C665.71 69.49 665.705 69.615 665.695 69.745H660.04C660.08 70.325 660.28 70.78 660.64 71.11C661.01 71.44 661.455 71.605 661.975 71.605C662.365 71.605 662.69 71.52 662.95 71.35C663.22 71.17 663.42 70.94 663.55 70.66H665.5C665.36 71.13 665.125 71.56 664.795 71.95C664.475 72.33 664.075 72.63 663.595 72.85C663.125 73.07 662.59 73.18 661.99 73.18ZM662.005 66.94C661.535 66.94 661.12 67.075 660.76 67.345C660.4 67.605 660.17 68.005 660.07 68.545H663.775C663.745 68.055 663.565 67.665 663.235 67.375C662.905 67.085 662.495 66.94 662.005 66.94ZM669.436 73.18C668.796 73.18 668.271 73.08 667.861 72.88C667.451 72.67 667.146 72.395 666.946 72.055C666.746 71.715 666.646 71.34 666.646 70.93C666.646 70.24 666.916 69.68 667.456 69.25C667.996 68.82 668.806 68.605 669.886 68.605H671.776V68.425C671.776 67.915 671.631 67.54 671.341 67.3C671.051 67.06 670.691 66.94 670.261 66.94C669.871 66.94 669.531 67.035 669.241 67.225C668.951 67.405 668.771 67.675 668.701 68.035H666.826C666.876 67.495 667.056 67.025 667.366 66.625C667.686 66.225 668.096 65.92 668.596 65.71C669.096 65.49 669.656 65.38 670.276 65.38C671.336 65.38 672.171 65.645 672.781 66.175C673.391 66.705 673.696 67.455 673.696 68.425V73H672.061L671.881 71.8C671.661 72.2 671.351 72.53 670.951 72.79C670.561 73.05 670.056 73.18 669.436 73.18ZM669.871 71.68C670.421 71.68 670.846 71.5 671.146 71.14C671.456 70.78 671.651 70.335 671.731 69.805H670.096C669.586 69.805 669.221 69.9 669.001 70.09C668.781 70.27 668.671 70.495 668.671 70.765C668.671 71.055 668.781 71.28 669.001 71.44C669.221 71.6 669.511 71.68 669.871 71.68ZM678.272 73C677.492 73 676.867 72.81 676.397 72.43C675.927 72.05 675.692 71.375 675.692 70.405V67.165H674.417V65.56H675.692L675.917 63.565H677.612V65.56H679.622V67.165H677.612V70.42C677.612 70.78 677.687 71.03 677.837 71.17C677.997 71.3 678.267 71.365 678.647 71.365H679.577V73H678.272ZM683.591 73.18C682.661 73.18 681.941 72.89 681.431 72.31C680.931 71.73 680.681 70.88 680.681 69.76V65.56H682.586V69.58C682.586 70.22 682.716 70.71 682.976 71.05C683.236 71.39 683.646 71.56 684.206 71.56C684.736 71.56 685.171 71.37 685.511 70.99C685.861 70.61 686.036 70.08 686.036 69.4V65.56H687.956V73H686.261L686.111 71.74C685.881 72.18 685.546 72.53 685.106 72.79C684.676 73.05 684.171 73.18 683.591 73.18ZM689.458 73V65.56H691.168L691.348 66.955C691.618 66.475 691.983 66.095 692.443 65.815C692.913 65.525 693.463 65.38 694.093 65.38V67.405H693.553C693.133 67.405 692.758 67.47 692.428 67.6C692.098 67.73 691.838 67.955 691.648 68.275C691.468 68.595 691.378 69.04 691.378 69.61V73H689.458ZM698.42 73.18C697.67 73.18 697.005 73.02 696.425 72.7C695.845 72.38 695.39 71.93 695.06 71.35C694.73 70.77 694.565 70.1 694.565 69.34C694.565 68.57 694.725 67.885 695.045 67.285C695.375 66.685 695.825 66.22 696.395 65.89C696.975 65.55 697.655 65.38 698.435 65.38C699.165 65.38 699.81 65.54 700.37 65.86C700.93 66.18 701.365 66.62 701.675 67.18C701.995 67.73 702.155 68.345 702.155 69.025C702.155 69.135 702.15 69.25 702.14 69.37C702.14 69.49 702.135 69.615 702.125 69.745H696.47C696.51 70.325 696.71 70.78 697.07 71.11C697.44 71.44 697.885 71.605 698.405 71.605C698.795 71.605 699.12 71.52 699.38 71.35C699.65 71.17 699.85 70.94 699.98 70.66H701.93C701.79 71.13 701.555 71.56 701.225 71.95C700.905 72.33 700.505 72.63 700.025 72.85C699.555 73.07 699.02 73.18 698.42 73.18ZM698.435 66.94C697.965 66.94 697.55 67.075 697.19 67.345C696.83 67.605 696.6 68.005 696.5 68.545H700.205C700.175 68.055 699.995 67.665 699.665 67.375C699.335 67.085 698.925 66.94 698.435 66.94ZM706.376 73.18C705.716 73.18 705.136 73.075 704.636 72.865C704.136 72.645 703.736 72.345 703.436 71.965C703.136 71.585 702.956 71.145 702.896 70.645H704.831C704.891 70.935 705.051 71.185 705.311 71.395C705.581 71.595 705.926 71.695 706.346 71.695C706.766 71.695 707.071 71.61 707.261 71.44C707.461 71.27 707.561 71.075 707.561 70.855C707.561 70.535 707.421 70.32 707.141 70.21C706.861 70.09 706.471 69.975 705.971 69.865C705.651 69.795 705.326 69.71 704.996 69.61C704.666 69.51 704.361 69.385 704.081 69.235C703.811 69.075 703.591 68.875 703.421 68.635C703.251 68.385 703.166 68.08 703.166 67.72C703.166 67.06 703.426 66.505 703.946 66.055C704.476 65.605 705.216 65.38 706.166 65.38C707.046 65.38 707.746 65.585 708.266 65.995C708.796 66.405 709.111 66.97 709.211 67.69H707.396C707.286 67.14 706.871 66.865 706.151 66.865C705.791 66.865 705.511 66.935 705.311 67.075C705.121 67.215 705.026 67.39 705.026 67.6C705.026 67.82 705.171 67.995 705.461 68.125C705.751 68.255 706.136 68.375 706.616 68.485C707.136 68.605 707.611 68.74 708.041 68.89C708.481 69.03 708.831 69.245 709.091 69.535C709.351 69.815 709.481 70.22 709.481 70.75C709.491 71.21 709.371 71.625 709.121 71.995C708.871 72.365 708.511 72.655 708.041 72.865C707.571 73.075 707.016 73.18 706.376 73.18Z" fill="#696871"/>
<path d="M761.747 73V62.5H765.632C766.472 62.5 767.167 62.64 767.717 62.92C768.267 63.2 768.677 63.585 768.947 64.075C769.217 64.565 769.352 65.115 769.352 65.725C769.352 66.305 769.222 66.84 768.962 67.33C768.702 67.81 768.297 68.2 767.747 68.5C767.197 68.79 766.492 68.935 765.632 68.935H763.667V73H761.747ZM763.667 67.375H765.512C766.182 67.375 766.662 67.23 766.952 66.94C767.252 66.64 767.402 66.235 767.402 65.725C767.402 65.205 767.252 64.8 766.952 64.51C766.662 64.21 766.182 64.06 765.512 64.06H763.667V67.375ZM770.345 73V65.56H772.055L772.235 66.955C772.505 66.475 772.87 66.095 773.33 65.815C773.8 65.525 774.35 65.38 774.98 65.38V67.405H774.44C774.02 67.405 773.645 67.47 773.315 67.6C772.985 67.73 772.725 67.955 772.535 68.275C772.355 68.595 772.265 69.04 772.265 69.61V73H770.345ZM776.858 64.405C776.508 64.405 776.218 64.3 775.988 64.09C775.768 63.88 775.658 63.615 775.658 63.295C775.658 62.975 775.768 62.715 775.988 62.515C776.218 62.305 776.508 62.2 776.858 62.2C777.208 62.2 777.493 62.305 777.713 62.515C777.943 62.715 778.058 62.975 778.058 63.295C778.058 63.615 777.943 63.88 777.713 64.09C777.493 64.3 777.208 64.405 776.858 64.405ZM775.898 73V65.56H777.818V73H775.898ZM782.998 73.18C782.238 73.18 781.568 73.015 780.988 72.685C780.408 72.355 779.948 71.895 779.608 71.305C779.278 70.715 779.113 70.04 779.113 69.28C779.113 68.52 779.278 67.845 779.608 67.255C779.948 66.665 780.408 66.205 780.988 65.875C781.568 65.545 782.238 65.38 782.998 65.38C783.948 65.38 784.748 65.63 785.398 66.13C786.048 66.62 786.463 67.3 786.643 68.17H784.618C784.518 67.81 784.318 67.53 784.018 67.33C783.728 67.12 783.383 67.015 782.983 67.015C782.453 67.015 782.003 67.215 781.633 67.615C781.263 68.015 781.078 68.57 781.078 69.28C781.078 69.99 781.263 70.545 781.633 70.945C782.003 71.345 782.453 71.545 782.983 71.545C783.383 71.545 783.728 71.445 784.018 71.245C784.318 71.045 784.518 70.76 784.618 70.39H786.643C786.463 71.23 786.048 71.905 785.398 72.415C784.748 72.925 783.948 73.18 782.998 73.18ZM788.913 64.405C788.563 64.405 788.273 64.3 788.043 64.09C787.823 63.88 787.713 63.615 787.713 63.295C787.713 62.975 787.823 62.715 788.043 62.515C788.273 62.305 788.563 62.2 788.913 62.2C789.263 62.2 789.548 62.305 789.768 62.515C789.998 62.715 790.113 62.975 790.113 63.295C790.113 63.615 789.998 63.88 789.768 64.09C789.548 64.3 789.263 64.405 788.913 64.405ZM787.953 73V65.56H789.873V73H787.953ZM791.408 73V65.56H793.103L793.253 66.82C793.483 66.38 793.813 66.03 794.243 65.77C794.683 65.51 795.198 65.38 795.788 65.38C796.708 65.38 797.423 65.67 797.933 66.25C798.443 66.83 798.698 67.68 798.698 68.8V73H796.778V68.98C796.778 68.34 796.648 67.85 796.388 67.51C796.128 67.17 795.723 67 795.173 67C794.633 67 794.188 67.19 793.838 67.57C793.498 67.95 793.328 68.48 793.328 69.16V73H791.408ZM803.215 70.78C802.855 70.78 802.52 70.74 802.21 70.66L801.655 71.215C801.825 71.305 802.055 71.38 802.345 71.44C802.635 71.5 803.105 71.56 803.755 71.62C804.745 71.71 805.465 71.945 805.915 72.325C806.365 72.705 806.59 73.23 806.59 73.9C806.59 74.34 806.47 74.755 806.23 75.145C805.99 75.545 805.62 75.865 805.12 76.105C804.62 76.355 803.98 76.48 803.2 76.48C802.14 76.48 801.285 76.28 800.635 75.88C799.985 75.49 799.66 74.9 799.66 74.11C799.66 73.44 799.985 72.86 800.635 72.37C800.435 72.28 800.26 72.185 800.11 72.085C799.97 71.985 799.845 71.88 799.735 71.77V71.425L801.04 70.045C800.46 69.535 800.17 68.88 800.17 68.08C800.17 67.58 800.29 67.125 800.53 66.715C800.78 66.305 801.13 65.98 801.58 65.74C802.03 65.5 802.575 65.38 803.215 65.38C803.635 65.38 804.025 65.44 804.385 65.56H807.205V66.73L805.93 66.82C806.13 67.2 806.23 67.62 806.23 68.08C806.23 68.58 806.11 69.035 805.87 69.445C805.63 69.855 805.28 70.18 804.82 70.42C804.37 70.66 803.835 70.78 803.215 70.78ZM803.215 69.31C803.605 69.31 803.925 69.205 804.175 68.995C804.435 68.785 804.565 68.485 804.565 68.095C804.565 67.705 804.435 67.405 804.175 67.195C803.925 66.985 803.605 66.88 803.215 66.88C802.805 66.88 802.475 66.985 802.225 67.195C801.975 67.405 801.85 67.705 801.85 68.095C801.85 68.485 801.975 68.785 802.225 68.995C802.475 69.205 802.805 69.31 803.215 69.31ZM801.415 73.915C801.415 74.285 801.585 74.56 801.925 74.74C802.275 74.93 802.7 75.025 803.2 75.025C803.68 75.025 804.07 74.925 804.37 74.725C804.67 74.535 804.82 74.275 804.82 73.945C804.82 73.675 804.72 73.45 804.52 73.27C804.33 73.09 803.945 72.98 803.365 72.94C802.955 72.91 802.575 72.865 802.225 72.805C801.935 72.965 801.725 73.14 801.595 73.33C801.475 73.52 801.415 73.715 801.415 73.915Z" fill="#696871"/>
<path d="M859.386 73V62.5H863.601C864.691 62.5 865.521 62.755 866.091 63.265C866.671 63.765 866.961 64.41 866.961 65.2C866.961 65.86 866.781 66.39 866.421 66.79C866.071 67.18 865.641 67.445 865.131 67.585C865.731 67.705 866.226 68.005 866.616 68.485C867.006 68.955 867.201 69.505 867.201 70.135C867.201 70.965 866.901 71.65 866.301 72.19C865.701 72.73 864.851 73 863.751 73H859.386ZM861.306 66.91H863.316C863.856 66.91 864.271 66.785 864.561 66.535C864.851 66.285 864.996 65.93 864.996 65.47C864.996 65.03 864.851 64.685 864.561 64.435C864.281 64.175 863.856 64.045 863.286 64.045H861.306V66.91ZM861.306 71.44H863.451C864.021 71.44 864.461 71.31 864.771 71.05C865.091 70.78 865.251 70.405 865.251 69.925C865.251 69.435 865.086 69.05 864.756 68.77C864.426 68.49 863.981 68.35 863.421 68.35H861.306V71.44ZM868.335 73V62.2H870.255V73H868.335ZM875.318 73.18C874.598 73.18 873.948 73.015 873.368 72.685C872.798 72.355 872.343 71.9 872.003 71.32C871.673 70.73 871.508 70.05 871.508 69.28C871.508 68.51 871.678 67.835 872.018 67.255C872.358 66.665 872.813 66.205 873.383 65.875C873.963 65.545 874.613 65.38 875.333 65.38C876.043 65.38 876.683 65.545 877.253 65.875C877.833 66.205 878.288 66.665 878.618 67.255C878.958 67.835 879.128 68.51 879.128 69.28C879.128 70.05 878.958 70.73 878.618 71.32C878.288 71.9 877.833 72.355 877.253 72.685C876.673 73.015 876.028 73.18 875.318 73.18ZM875.318 71.515C875.818 71.515 876.253 71.33 876.623 70.96C876.993 70.58 877.178 70.02 877.178 69.28C877.178 68.54 876.993 67.985 876.623 67.615C876.253 67.235 875.823 67.045 875.333 67.045C874.823 67.045 874.383 67.235 874.013 67.615C873.653 67.985 873.473 68.54 873.473 69.28C873.473 70.02 873.653 70.58 874.013 70.96C874.383 71.33 874.818 71.515 875.318 71.515ZM883.057 70.78C882.697 70.78 882.362 70.74 882.052 70.66L881.497 71.215C881.667 71.305 881.897 71.38 882.187 71.44C882.477 71.5 882.947 71.56 883.597 71.62C884.587 71.71 885.307 71.945 885.757 72.325C886.207 72.705 886.432 73.23 886.432 73.9C886.432 74.34 886.312 74.755 886.072 75.145C885.832 75.545 885.462 75.865 884.962 76.105C884.462 76.355 883.822 76.48 883.042 76.48C881.982 76.48 881.127 76.28 880.477 75.88C879.827 75.49 879.502 74.9 879.502 74.11C879.502 73.44 879.827 72.86 880.477 72.37C880.277 72.28 880.102 72.185 879.952 72.085C879.812 71.985 879.687 71.88 879.577 71.77V71.425L880.882 70.045C880.302 69.535 880.012 68.88 880.012 68.08C880.012 67.58 880.132 67.125 880.372 66.715C880.622 66.305 880.972 65.98 881.422 65.74C881.872 65.5 882.417 65.38 883.057 65.38C883.477 65.38 883.867 65.44 884.227 65.56H887.047V66.73L885.772 66.82C885.972 67.2 886.072 67.62 886.072 68.08C886.072 68.58 885.952 69.035 885.712 69.445C885.472 69.855 885.122 70.18 884.662 70.42C884.212 70.66 883.677 70.78 883.057 70.78ZM883.057 69.31C883.447 69.31 883.767 69.205 884.017 68.995C884.277 68.785 884.407 68.485 884.407 68.095C884.407 67.705 884.277 67.405 884.017 67.195C883.767 66.985 883.447 66.88 883.057 66.88C882.647 66.88 882.317 66.985 882.067 67.195C881.817 67.405 881.692 67.705 881.692 68.095C881.692 68.485 881.817 68.785 882.067 68.995C882.317 69.205 882.647 69.31 883.057 69.31ZM881.257 73.915C881.257 74.285 881.427 74.56 881.767 74.74C882.117 74.93 882.542 75.025 883.042 75.025C883.522 75.025 883.912 74.925 884.212 74.725C884.512 74.535 884.662 74.275 884.662 73.945C884.662 73.675 884.562 73.45 884.362 73.27C884.172 73.09 883.787 72.98 883.207 72.94C882.797 72.91 882.417 72.865 882.067 72.805C881.777 72.965 881.567 73.14 881.437 73.33C881.317 73.52 881.257 73.715 881.257 73.915Z" fill="#696871"/>
<path d="M221.122 65.2104C219.987 66.3456 219.419 67.9246 219.574 69.5178L219.547 69.4913C219.707 71.3661 219.026 73.2154 217.687 74.5458C216.348 75.8762 214.486 76.5525 212.599 76.3942L212.626 76.4207C210.341 76.2094 208.168 77.4442 207.193 79.5079C206.218 81.5717 206.65 84.0213 208.273 85.6326C209.896 87.2439 212.363 87.671 214.439 86.7004C216.515 85.7298 217.756 83.5699 217.542 81.3001L217.57 81.3266C217.41 79.4518 218.091 77.6025 219.43 76.2721C220.77 74.9417 222.631 74.2654 224.518 74.4236L224.49 74.3972C227.001 74.6215 229.338 73.1004 230.133 70.7234C230.929 68.3464 229.974 65.7382 227.827 64.4242C225.681 63.1102 222.906 63.4358 221.127 65.2104H221.122Z" fill="#5454D4"/>
<path d="M210.202 72.953L210.174 72.9265C211.779 73.0872 213.372 72.5234 214.512 71.3909C215.653 70.2584 216.222 68.6767 216.061 67.0824L216.09 67.1089C215.93 65.2341 216.611 63.3848 217.95 62.0544C219.289 60.724 221.151 60.0477 223.038 60.206L223.01 60.1795C225.295 60.3927 227.469 59.1593 228.446 57.0958C229.422 55.0324 228.992 52.5821 227.369 50.9697C225.746 49.3574 223.279 48.9294 221.202 49.8996C219.125 50.8698 217.884 53.0299 218.098 55.3001L218.072 55.2721C218.231 57.1471 217.551 58.9967 216.212 60.3272C214.872 61.6578 213.011 62.3339 211.123 62.1751L211.15 62.203C209.545 62.0424 207.953 62.6061 206.812 63.7387C205.671 64.8712 205.102 66.4528 205.263 68.0471L205.236 68.0207C205.395 69.8954 204.714 71.7443 203.375 73.0746C202.036 74.4049 200.175 75.0813 198.288 74.9236L198.314 74.9501C196.029 74.7369 193.855 75.9703 192.878 78.0337C191.902 80.0972 192.333 82.5475 193.956 84.1598C195.579 85.7721 198.045 86.2002 200.122 85.23C202.199 84.2597 203.441 82.0997 203.226 79.8295L203.254 79.856C203.095 77.9811 203.776 76.1319 205.115 74.8014C206.454 73.471 208.315 72.7948 210.202 72.953Z" fill="#FF7143"/>
<path d="M200.282 70.0016C201.418 68.8665 201.985 67.2873 201.829 65.6942L201.857 65.7207C201.697 63.8453 202.378 61.9955 203.718 60.665C205.058 59.3344 206.92 58.6586 208.808 58.8178L208.78 58.7913C211.064 59.0039 213.238 57.7706 214.214 55.7078C215.19 53.645 214.759 51.1957 213.136 49.5839C211.514 47.9722 209.049 47.5442 206.972 48.5138C204.896 49.4835 203.654 51.6425 203.868 53.9119L203.842 53.8854C204.001 55.7602 203.32 57.6095 201.981 58.9399C200.642 60.2703 198.781 60.9466 196.893 60.7883L196.92 60.8148C194.409 60.5911 192.073 62.1127 191.278 64.4896C190.483 66.8666 191.438 69.4746 193.585 70.7882C195.731 72.1019 198.505 71.7762 200.285 70.0016H200.282Z" fill="#5454D4"/>
<path d="M246.136 55.334H250.533V76.5884H246.136V55.334Z" fill="#19191B"/>
<path fill-rule="evenodd" clip-rule="evenodd" d="M257.795 62.1596C254.894 63.3636 253.01 66.1867 253.022 69.3104C253.007 71.3586 253.822 73.3269 255.282 74.7724C256.743 76.2178 258.728 77.019 260.789 76.9957C263.934 76.9957 266.768 75.1123 267.968 72.2252C269.168 69.3381 268.498 66.0168 266.27 63.8124C264.043 61.6081 260.697 60.9555 257.795 62.1596ZM260.727 66.0536C262.577 66.0196 264.109 67.4729 264.16 69.3103C264.21 70.2212 263.874 71.1114 263.234 71.7653C262.594 72.4192 261.707 72.7773 260.789 72.753C258.939 72.7531 257.434 71.2721 257.417 69.434C257.4 67.596 258.877 66.0875 260.727 66.0536Z" fill="#19191B"/>
<path fill-rule="evenodd" clip-rule="evenodd" d="M286.078 75.8545V62.031L281.799 62.0281V63.5133C280.755 62.2443 279.167 61.5421 277.519 61.6207C273.5 61.7466 270.307 65.0203 270.307 69.0156C270.307 73.0109 273.5 76.2845 277.519 76.4104C279.167 76.489 280.755 75.7868 281.799 74.5178V75.8486C281.872 76.7267 281.54 77.5905 280.896 78.1963C280.252 78.8021 279.366 79.0843 278.487 78.9633C277.098 79.1043 275.766 78.3733 275.146 77.1295L271.395 79.2839C272.863 81.6593 275.543 83.0214 278.341 82.8133C282.238 82.8133 286.078 80.7457 286.078 75.8545ZM279.711 65.6533C281.034 66.2458 281.861 67.5777 281.8 69.0177C281.828 69.9476 281.458 70.8456 280.783 71.4899C280.107 72.1342 279.189 72.4649 278.255 72.4001C276.804 72.4018 275.498 71.527 274.956 70.1903C274.413 68.8535 274.744 67.3234 275.79 66.325C276.836 65.3267 278.389 65.0608 279.711 65.6533Z" fill="#19191B"/>
<path fill-rule="evenodd" clip-rule="evenodd" d="M293.341 62.1596C290.44 63.3636 288.556 66.1867 288.568 69.3104C288.553 71.3586 289.367 73.3269 290.828 74.7724C292.289 76.2178 294.273 77.019 296.335 76.9957C299.479 76.9957 302.313 75.1123 303.514 72.2252C304.714 69.3381 304.044 66.0168 301.816 63.8124C299.588 61.6081 296.243 60.9555 293.341 62.1596ZM296.273 66.0536C298.123 66.0196 299.654 67.4729 299.706 69.3103C299.756 70.2212 299.42 71.1114 298.78 71.7653C298.139 72.4192 297.253 72.7773 296.335 72.753C294.485 72.7531 292.98 71.2721 292.963 69.434C292.946 67.596 294.423 66.0875 296.273 66.0536Z" fill="#19191B"/>
<path fill-rule="evenodd" clip-rule="evenodd" d="M307.781 55.7085C306.795 56.1141 306.152 57.0696 306.152 58.1296C306.167 59.5709 307.339 60.7358 308.79 60.7502C309.857 60.7502 310.819 60.1117 311.227 59.1324C311.635 58.1532 311.41 57.026 310.655 56.2765C309.901 55.5271 308.766 55.3029 307.781 55.7085ZM310.994 62.031H306.596L306.59 76.5898H310.994V62.031Z" fill="#19191B"/>
<path fill-rule="evenodd" clip-rule="evenodd" d="M328.084 74.6C329.398 73.1575 330.08 71.2537 329.977 69.3104C330.081 67.3667 329.399 65.4623 328.085 64.0193C326.77 62.5764 324.93 61.7141 322.973 61.6236C321.323 61.5342 319.72 62.1859 318.607 63.3986V62.031H314.211V82.4118H318.607V75.2192C319.72 76.4328 321.323 77.0851 322.973 76.9957C324.929 76.9048 326.769 76.0426 328.084 74.6ZM322.036 65.9329C323.951 65.901 325.533 67.4087 325.581 69.3103C325.647 70.2554 325.304 71.1836 324.639 71.8619C323.973 72.5401 323.047 72.9039 322.095 72.8618C320.18 72.862 318.623 71.3285 318.607 69.4263C318.591 67.5241 320.122 65.9647 322.036 65.9329Z" fill="#19191B"/>
<path d="M343.544 72.2207C343.544 75.5693 340.614 76.9957 337.45 76.9957C334.833 77.2312 332.337 75.8585 331.148 73.531L334.957 71.3766C335.274 72.4602 336.311 73.176 337.444 73.0943C338.498 73.0943 339.026 72.7737 339.026 72.1928C339.026 70.5899 331.816 71.4354 331.816 66.3987C331.816 63.2237 334.513 61.6237 337.561 61.6237C339.894 61.5503 342.083 62.7436 343.275 64.7384L339.524 66.7472C339.187 65.9676 338.414 65.4633 337.561 65.4663C336.798 65.4663 336.329 65.7604 336.329 66.281C336.335 67.9413 343.544 66.834 343.544 72.2207Z" fill="#19191B"/>
<path d="M359.603 62.031V76.5898H355.207V75.2207C354.178 76.4462 352.62 77.1069 351.018 76.9972C348.057 76.9972 345.541 74.9016 345.541 70.9678V62.031H349.937V70.3281C349.863 71.0299 350.103 71.7287 350.594 72.2386C351.085 72.7485 351.777 73.0179 352.486 72.9751C354.098 72.9751 355.211 72.0442 355.211 69.9766V62.0354L359.603 62.031Z" fill="#19191B"/>
<path d="M384.812 67.6501V76.5883H380.416V68.0281C380.416 66.5722 379.713 65.6413 378.307 65.6413C376.841 65.6413 376.02 66.6604 376.02 68.3781V76.5883H371.625V68.0281C371.625 66.5722 370.922 65.6413 369.514 65.6413C368.048 65.6413 367.228 66.6604 367.228 68.3781V76.5883H362.832V62.0295H367.228V63.3678C368.154 62.1614 369.633 61.5041 371.155 61.6222C372.686 61.5478 374.143 62.277 374.994 63.5428C375.984 62.2195 377.589 61.4942 379.244 61.6222C382.608 61.6236 384.812 64.0104 384.812 67.6501Z" fill="#19191B"/>
<path d="M388.531 61.9413C390.333 61.9413 391.793 60.4902 391.793 58.7002C391.793 56.9101 390.333 55.459 388.531 55.459C386.729 55.459 385.268 56.9101 385.268 58.7002C385.268 60.4902 386.729 61.9413 388.531 61.9413Z" fill="#19191B"/>
<defs>
<clipPath id="clip0_1_80">
<rect width="212.389" height="60" fill="white" transform="translate(1048.61 38)"/>
</clipPath>
</defs>
</svg>
